<?xml version="1.0" encoding="UTF-8"?>
<svg xmlns="http://www.w3.org/2000/svg" xmlns:xlink="http://www.w3.org/1999/xlink" width="102px" height="97px" viewBox="0 0 51 49" version="1.1">
<g id="surface1">
<path style=" stroke:none;fill-rule:nonzero;fill:rgb(2.745098%,8.235294%,14.901961%);fill-opacity:1;" d="M 8.5 0 C 11.800781 0 15.101562 0 18.5 0 C 18.210938 3.855469 17.675781 7.550781 16.90625 11.335938 C 15.617188 17.863281 14.535156 24.417969 13.484375 30.988281 C 13.421875 31.371094 13.359375 31.753906 13.296875 32.148438 C 13.179688 32.875 13.0625 33.597656 12.949219 34.324219 C 12.554688 36.761719 12.554688 36.761719 12 37.886719 C 14.308594 37.886719 16.621094 37.886719 19 37.886719 C 18.597656 36.867188 18.195312 35.84375 17.78125 34.792969 C 15.261719 28.398438 15.125 21.132812 17.5 14.648438 C 20.46875 7.839844 24.125 3.78125 31 1.011719 C 36.5625 -1.007812 43.421875 -0.0429688 49 1.515625 C 48.039062 4.980469 46.875 8.300781 45.5 11.617188 C 46.160156 11.617188 46.820312 11.617188 47.5 11.617188 C 47.238281 17.054688 46.222656 22.324219 45.21875 27.65625 C 45.050781 28.554688 44.886719 29.453125 44.71875 30.347656 C 44.316406 32.523438 43.910156 34.699219 43.5 36.875 C 43.808594 36.921875 44.121094 36.964844 44.441406 37.011719 C 45.5 37.382812 45.5 37.382812 46.046875 38.210938 C 46.183594 38.5625 46.320312 38.914062 46.460938 39.273438 C 46.6875 39.84375 46.6875 39.84375 46.921875 40.429688 C 47.070312 40.828125 47.21875 41.230469 47.375 41.644531 C 47.53125 42.042969 47.691406 42.441406 47.851562 42.851562 C 49 45.792969 49 45.792969 49 46.980469 C 43.683594 48.785156 38.539062 48.691406 33.007812 48.644531 C 32.050781 48.640625 31.097656 48.636719 30.140625 48.636719 C 27.644531 48.628906 25.148438 48.617188 22.65625 48.597656 C 20.101562 48.582031 17.546875 48.578125 14.992188 48.570312 C 9.996094 48.550781 4.996094 48.527344 0 48.496094 C 0.660156 42.632812 1.570312 36.84375 2.613281 31.039062 C 2.765625 30.171875 2.921875 29.300781 3.074219 28.429688 C 3.394531 26.628906 3.714844 24.824219 4.039062 23.023438 C 4.453125 20.710938 4.863281 18.398438 5.273438 16.085938 C 5.589844 14.300781 5.90625 12.515625 6.226562 10.726562 C 6.378906 9.875 6.53125 9.019531 6.679688 8.167969 C 6.890625 6.980469 7.105469 5.796875 7.316406 4.613281 C 7.378906 4.261719 7.441406 3.910156 7.503906 3.546875 C 7.941406 1.125 7.941406 1.125 8.5 0 Z M 29.5625 14.777344 C 26.570312 18.109375 26.164062 21.523438 26.257812 25.957031 C 26.726562 29.496094 28.164062 32.679688 30.851562 35.023438 C 31.230469 35.304688 31.609375 35.582031 32 35.867188 C 32.496094 35.617188 32.496094 35.617188 33 35.359375 C 33.300781 34.410156 33.300781 34.410156 33.472656 33.242188 C 33.550781 32.789062 33.628906 32.339844 33.710938 31.875 C 33.792969 31.386719 33.871094 30.898438 33.953125 30.390625 C 34.085938 29.640625 34.085938 29.640625 34.214844 28.875 C 34.492188 27.269531 34.761719 25.664062 35.03125 24.058594 C 35.304688 22.457031 35.578125 20.851562 35.851562 19.25 C 36.023438 18.25 36.191406 17.253906 36.359375 16.253906 C 36.4375 15.800781 36.511719 15.347656 36.59375 14.878906 C 36.691406 14.28125 36.691406 14.28125 36.792969 13.671875 C 37 12.628906 37 12.628906 37.5 11.113281 C 34.453125 11.113281 31.757812 12.710938 29.5625 14.777344 Z M 40.5 11.113281 C 40.5 11.28125 40.5 11.445312 40.5 11.617188 C 41.324219 11.617188 42.148438 11.617188 43 11.617188 C 43 11.453125 43 11.285156 43 11.113281 C 42.175781 11.113281 41.351562 11.113281 40.5 11.113281 Z M 40.5 11.113281 "/>
<path style=" stroke:none;fill-rule:nonzero;fill:rgb(1.960784%,43.529412%,66.274512%);fill-opacity:1;" d="M 47 2.527344 C 46.898438 2.847656 46.796875 3.171875 46.6875 3.507812 C 45.507812 7.246094 45.507812 7.246094 45 11.113281 C 45.246094 11.363281 45.496094 11.613281 45.75 11.871094 C 45.996094 12.121094 46.246094 12.371094 46.5 12.628906 C 46.253906 15.066406 45.777344 17.464844 45.328125 19.867188 C 45.265625 20.210938 45.203125 20.550781 45.136719 20.90625 C 45.003906 21.625 44.871094 22.34375 44.734375 23.0625 C 44.53125 24.144531 44.332031 25.226562 44.128906 26.3125 C 43.757812 28.320312 43.378906 30.324219 43 32.328125 C 42.902344 32.863281 42.800781 33.398438 42.699219 33.949219 C 42.613281 34.40625 42.523438 34.863281 42.4375 35.335938 C 42.363281 35.722656 42.289062 36.113281 42.214844 36.515625 C 42 37.382812 42 37.382812 41.5 37.886719 C 40.617188 37.9375 39.730469 37.953125 38.84375 37.949219 C 38.359375 37.949219 37.878906 37.953125 37.382812 37.953125 C 36.160156 37.894531 35.167969 37.699219 34 37.382812 C 34.28125 33.585938 34.785156 29.882812 35.46875 26.140625 C 36.074219 22.707031 36.675781 19.273438 37.15625 15.816406 C 37.238281 15.242188 37.316406 14.667969 37.398438 14.074219 C 37.492188 12.75 37.417969 11.855469 37 10.609375 C 39 10.609375 41 10.609375 43 10.609375 C 42.054688 9.65625 40.542969 9.949219 39.28125 9.914062 C 35.246094 9.957031 32.496094 10.839844 29.46875 13.554688 C 26.039062 17.214844 25.203125 20.644531 25.324219 25.632812 C 25.734375 29.445312 27.4375 33.449219 30.265625 36.070312 C 34.527344 39.441406 39.371094 39.019531 44.5 38.898438 C 44.917969 39.886719 45.335938 40.875 45.75 41.863281 C 45.980469 42.414062 46.214844 42.964844 46.453125 43.535156 C 47 44.957031 47 44.957031 47 45.96875 C 40.554688 47.941406 34.738281 48.375 28.5 45.464844 C 23.214844 42.410156 19.804688 37.628906 18 31.824219 C 16.679688 25.691406 16.6875 17.824219 19.757812 12.273438 C 20.609375 10.976562 21.511719 9.78125 22.5 8.585938 C 22.773438 8.253906 23.046875 7.921875 23.332031 7.578125 C 29.402344 0.847656 38.753906 0.417969 47 2.527344 Z M 47 2.527344 "/>
<path style=" stroke:none;fill-rule:nonzero;fill:rgb(0.784314%,43.529412%,66.666669%);fill-opacity:1;" d="M 9 1.011719 C 11.640625 1.011719 14.28125 1.011719 17 1.011719 C 16.71875 4.746094 16.214844 8.304688 15.4375 11.964844 C 14.199219 17.984375 13.132812 24.03125 12.09375 30.089844 C 12.015625 30.550781 11.933594 31.011719 11.851562 31.488281 C 11.398438 34.125 10.949219 36.761719 10.5 39.402344 C 10.789062 39.390625 11.082031 39.378906 11.378906 39.367188 C 12.703125 39.324219 14.027344 39.296875 15.351562 39.269531 C 15.8125 39.253906 16.269531 39.234375 16.738281 39.214844 C 20.152344 39.164062 20.152344 39.164062 21.941406 40.390625 C 22.84375 41.515625 22.84375 41.515625 23.664062 42.773438 C 24.84375 44.433594 26.269531 45.105469 28.058594 45.984375 C 29 46.472656 29 46.472656 30 47.484375 C 20.59375 47.484375 11.191406 47.484375 1.5 47.484375 C 1.824219 44.859375 2.183594 42.363281 2.6875 39.78125 C 3.277344 36.707031 3.773438 33.628906 4.21875 30.53125 C 5.15625 24.042969 6.300781 17.589844 7.445312 11.136719 C 7.511719 10.753906 7.578125 10.367188 7.648438 9.96875 C 7.828125 8.953125 8.011719 7.933594 8.195312 6.917969 C 8.515625 4.949219 8.769531 2.988281 9 1.011719 Z M 9 1.011719 "/>
<path style=" stroke:none;fill-rule:nonzero;fill:rgb(5.882353%,12.156863%,18.82353%);fill-opacity:1;" d="M 42.5 9.597656 C 43.453125 10.371094 43.453125 10.371094 44 11.113281 C 43.546875 11.089844 43.09375 11.066406 42.625 11.042969 C 37.492188 10.886719 34.335938 11.558594 30.3125 14.777344 C 27.410156 17.550781 26.921875 20.15625 26.71875 24.121094 C 26.796875 27.820312 27.808594 30.863281 30 33.84375 C 30.820312 34.371094 31.652344 34.878906 32.5 35.359375 C 32.574219 34.933594 32.574219 34.933594 32.648438 34.5 C 33.15625 31.558594 33.667969 28.617188 34.179688 25.675781 C 34.371094 24.578125 34.5625 23.476562 34.753906 22.378906 C 35.027344 20.800781 35.300781 19.226562 35.578125 17.652344 C 35.660156 17.15625 35.746094 16.660156 35.832031 16.152344 C 35.914062 15.695312 35.992188 15.242188 36.074219 14.773438 C 36.144531 14.371094 36.214844 13.96875 36.289062 13.550781 C 36.5 12.628906 36.5 12.628906 37 12.125 C 38.175781 12.085938 39.355469 12.082031 40.53125 12.09375 C 41.175781 12.097656 41.820312 12.101562 42.484375 12.105469 C 42.984375 12.113281 43.484375 12.117188 44 12.125 C 44 12.289062 44 12.457031 44 12.628906 C 41.855469 12.628906 39.710938 12.628906 37.5 12.628906 C 37.53125 13.203125 37.5625 13.773438 37.59375 14.367188 C 37.589844 17.785156 36.867188 21.097656 36.242188 24.441406 C 35.773438 26.996094 35.34375 29.550781 34.90625 32.109375 C 34.734375 33.121094 34.558594 34.128906 34.382812 35.140625 C 34.195312 36.25 34.195312 36.25 34 37.382812 C 36.476562 37.382812 38.949219 37.382812 41.5 37.382812 C 41.597656 36.847656 41.695312 36.3125 41.796875 35.761719 C 42.167969 33.75 42.539062 31.738281 42.914062 29.730469 C 43.074219 28.863281 43.234375 28 43.390625 27.132812 C 44.285156 22.257812 45.21875 17.417969 46.5 12.628906 C 46.003906 12.460938 45.511719 12.296875 45 12.125 C 45.824219 11.957031 46.648438 11.789062 47.5 11.617188 C 47.328125 15.351562 46.8125 18.984375 46.148438 22.65625 C 46.070312 23.097656 45.992188 23.539062 45.910156 23.992188 C 45.574219 25.832031 45.234375 27.671875 44.890625 29.511719 C 44.640625 30.867188 44.394531 32.222656 44.148438 33.582031 C 44.070312 34 43.988281 34.417969 43.90625 34.847656 C 43.726562 35.851562 43.609375 36.871094 43.5 37.886719 C 43.828125 38.21875 44.160156 38.554688 44.5 38.898438 C 40.332031 40.019531 35.914062 39.699219 32 37.886719 C 28.425781 35.609375 26.460938 32.355469 25.195312 28.332031 C 24.273438 23.351562 24.933594 19.21875 27.734375 15.078125 C 31.535156 10.207031 36.457031 8.644531 42.5 9.597656 Z M 42.5 9.597656 "/>
<path style=" stroke:none;fill-rule:nonzero;fill:rgb(2.745098%,7.450981%,12.54902%);fill-opacity:1;" d="M 49 1.515625 C 48.0625 5.128906 46.75 8.332031 45 11.617188 C 44.140625 9.554688 44.964844 7.894531 45.71875 5.9375 C 45.839844 5.605469 45.960938 5.277344 46.085938 4.941406 C 46.386719 4.132812 46.691406 3.328125 47 2.527344 C 39.742188 1.597656 32.199219 1.113281 26.015625 5.691406 C 24.296875 7.175781 22.863281 8.792969 21.5 10.609375 C 21.257812 10.929688 21.015625 11.253906 20.765625 11.585938 C 17.09375 16.953125 17.203125 25.003906 18.3125 31.257812 C 19.792969 36.542969 22.539062 41.382812 27.296875 44.214844 C 28.515625 44.839844 29.746094 45.414062 31 45.96875 C 31.667969 46.300781 32.335938 46.636719 33 46.980469 C 29.496094 47.300781 27.351562 46.527344 24.5 44.453125 C 21.398438 41.726562 21.398438 41.726562 20.5 39.90625 C 17.199219 39.742188 13.898438 39.574219 10.5 39.402344 C 10.761719 35.613281 11.164062 31.988281 12 28.289062 C 12.164062 28.289062 12.328125 28.289062 12.5 28.289062 C 12.96875 31.773438 13.066406 34.523438 12 37.886719 C 14.308594 37.886719 16.621094 37.886719 19 37.886719 C 18.597656 36.867188 18.195312 35.84375 17.78125 34.792969 C 15.261719 28.398438 15.125 21.132812 17.5 14.648438 C 20.46875 7.839844 24.125 3.78125 31 1.011719 C 36.5625 -1.007812 43.421875 -0.0429688 49 1.515625 Z M 49 1.515625 "/>
<path style=" stroke:none;fill-rule:nonzero;fill:rgb(12.54902%,39.607844%,54.901963%);fill-opacity:1;" d="M 9 1.011719 C 11.640625 1.011719 14.28125 1.011719 17 1.011719 C 16.71875 4.746094 16.214844 8.304688 15.4375 11.964844 C 14.199219 17.984375 13.132812 24.03125 12.09375 30.089844 C 12.015625 30.550781 11.933594 31.011719 11.851562 31.488281 C 11.398438 34.125 10.949219 36.761719 10.5 39.402344 C 10.789062 39.390625 11.082031 39.378906 11.378906 39.367188 C 12.703125 39.324219 14.027344 39.296875 15.351562 39.269531 C 15.8125 39.253906 16.269531 39.234375 16.738281 39.214844 C 20.152344 39.164062 20.152344 39.164062 21.941406 40.390625 C 22.84375 41.515625 22.84375 41.515625 23.664062 42.773438 C 24.84375 44.433594 26.269531 45.105469 28.058594 45.984375 C 29 46.472656 29 46.472656 30 47.484375 C 20.59375 47.484375 11.191406 47.484375 1.5 47.484375 C 1.824219 44.859375 2.183594 42.363281 2.6875 39.78125 C 3.277344 36.707031 3.773438 33.628906 4.21875 30.53125 C 5.15625 24.042969 6.300781 17.589844 7.445312 11.136719 C 7.511719 10.753906 7.578125 10.367188 7.648438 9.96875 C 7.828125 8.953125 8.011719 7.933594 8.195312 6.917969 C 8.515625 4.949219 8.769531 2.988281 9 1.011719 Z M 11 2.019531 C 9.953125 3.738281 9.910156 5.078125 10 7.070312 C 9.671875 7.070312 9.339844 7.070312 9 7.070312 C 8.519531 10.292969 8.445312 13.417969 8.5 16.671875 C 8.171875 16.671875 7.839844 16.671875 7.5 16.671875 C 7.460938 16.976562 7.417969 17.285156 7.378906 17.605469 C 7.191406 19.007812 7.003906 20.414062 6.8125 21.816406 C 6.75 22.300781 6.6875 22.785156 6.621094 23.285156 C 6.554688 23.757812 6.492188 24.226562 6.425781 24.710938 C 6.339844 25.359375 6.339844 25.359375 6.25 26.019531 C 6 27.277344 6 27.277344 5.503906 28.507812 C 4.929688 29.988281 4.703125 31.351562 4.480469 32.929688 C 4.398438 33.519531 4.3125 34.113281 4.226562 34.726562 C 4.140625 35.34375 4.054688 35.957031 3.96875 36.59375 C 3.796875 37.8125 3.625 39.03125 3.449219 40.253906 C 3.375 40.792969 3.300781 41.332031 3.222656 41.886719 C 3.003906 43.417969 2.75 44.945312 2.5 46.472656 C 9.761719 46.472656 17.019531 46.472656 24.5 46.472656 C 23.976562 44.359375 23.589844 43.796875 22 42.433594 C 21.671875 42.433594 21.339844 42.433594 21 42.433594 C 20.671875 41.597656 20.339844 40.765625 20 39.90625 C 15.050781 40.15625 15.050781 40.15625 10 40.414062 C 9.835938 38.746094 9.671875 37.078125 9.5 35.359375 C 9.828125 35.359375 10.160156 35.359375 10.5 35.359375 C 10.597656 34.558594 10.597656 34.558594 10.703125 33.738281 C 10.789062 33.039062 10.878906 32.335938 10.96875 31.636719 C 11.011719 31.28125 11.054688 30.929688 11.101562 30.566406 C 11.445312 27.898438 11.445312 27.898438 12 26.773438 C 12.117188 25.488281 12.210938 24.210938 12.28125 22.921875 C 12.304688 22.566406 12.324219 22.207031 12.347656 21.839844 C 12.398438 20.957031 12.449219 20.078125 12.5 19.195312 C 12.828125 19.195312 13.160156 19.195312 13.5 19.195312 C 13.519531 18.753906 13.539062 18.316406 13.554688 17.863281 C 13.753906 14.21875 14.226562 10.910156 15.179688 7.394531 C 15.589844 5.6875 15.652344 4.269531 15.5 2.527344 C 15.007812 1.917969 15.007812 1.917969 14.078125 1.972656 C 13.050781 1.988281 12.023438 2.003906 11 2.019531 Z M 11 2.019531 "/>
<path style=" stroke:none;fill-rule:nonzero;fill:rgb(0.784314%,43.529412%,66.666669%);fill-opacity:1;" d="M 39.5 14.144531 C 41.148438 14.144531 42.800781 14.144531 44.5 14.144531 C 44.429688 14.851562 44.355469 15.5625 44.28125 16.292969 C 43.984375 19.277344 43.738281 22.265625 43.5 25.257812 C 43.171875 25.257812 42.839844 25.257812 42.5 25.257812 C 42.476562 25.722656 42.449219 26.183594 42.425781 26.664062 C 42.027344 33.253906 42.027344 33.253906 41 36.371094 C 39.738281 37.007812 38.84375 36.925781 37.4375 36.90625 C 36.632812 36.898438 35.828125 36.886719 35 36.875 C 35 34.875 35 32.875 35 30.8125 C 35.496094 30.5625 35.496094 30.5625 36 30.308594 C 36.214844 29.25 36.214844 29.25 36.28125 28.035156 C 36.453125 25.8125 36.453125 25.8125 37 25.257812 C 37.113281 24.582031 37.195312 23.902344 37.265625 23.21875 C 37.3125 22.8125 37.355469 22.402344 37.398438 21.980469 C 37.464844 21.335938 37.464844 21.335938 37.53125 20.679688 C 37.578125 20.25 37.621094 19.816406 37.667969 19.371094 C 37.78125 18.304688 37.890625 17.234375 38 16.164062 C 38.328125 16.164062 38.660156 16.164062 39 16.164062 C 39.164062 15.5 39.328125 14.832031 39.5 14.144531 Z M 39.5 14.144531 "/>
<path style=" stroke:none;fill-rule:nonzero;fill:rgb(13.725491%,40.392157%,56.078434%);fill-opacity:1;" d="M 47 2.527344 C 46.898438 2.847656 46.796875 3.171875 46.6875 3.507812 C 45.507812 7.246094 45.507812 7.246094 45 11.113281 C 45.246094 11.363281 45.496094 11.613281 45.75 11.871094 C 45.996094 12.121094 46.246094 12.371094 46.5 12.628906 C 46.253906 15.066406 45.777344 17.464844 45.328125 19.867188 C 45.265625 20.210938 45.203125 20.550781 45.136719 20.90625 C 45.003906 21.625 44.871094 22.34375 44.734375 23.0625 C 44.53125 24.144531 44.332031 25.226562 44.128906 26.3125 C 43.757812 28.320312 43.378906 30.324219 43 32.328125 C 42.902344 32.863281 42.800781 33.398438 42.699219 33.949219 C 42.570312 34.636719 42.570312 34.636719 42.4375 35.335938 C 42.363281 35.722656 42.289062 36.113281 42.214844 36.515625 C 42 37.382812 42 37.382812 41.5 37.886719 C 40.617188 37.9375 39.730469 37.953125 38.84375 37.949219 C 38.359375 37.949219 37.878906 37.953125 37.382812 37.953125 C 36 37.886719 36 37.886719 34 37.382812 C 34.164062 35.546875 34.328125 33.714844 34.5 31.824219 C 34.664062 31.824219 34.828125 31.824219 35 31.824219 C 35 33.492188 35 35.160156 35 36.875 C 37.96875 36.625 37.96875 36.625 41 36.371094 C 41.097656 35.421875 41.097656 35.421875 41.203125 34.453125 C 41.289062 33.617188 41.378906 32.785156 41.46875 31.949219 C 41.511719 31.535156 41.554688 31.117188 41.601562 30.6875 C 41.644531 30.285156 41.6875 29.878906 41.734375 29.464844 C 41.773438 29.09375 41.8125 28.722656 41.851562 28.34375 C 42 27.289062 42.226562 26.285156 42.5 25.257812 C 42.828125 25.257812 43.160156 25.257812 43.5 25.257812 C 43.488281 24.878906 43.476562 24.5 43.464844 24.109375 C 43.402344 20.621094 43.710938 17.539062 44.5 14.144531 C 42.023438 14.394531 42.023438 14.394531 39.5 14.648438 C 39.335938 15.148438 39.171875 15.648438 39 16.164062 C 38.671875 16.164062 38.339844 16.164062 38 16.164062 C 38.003906 16.523438 38.011719 16.886719 38.015625 17.257812 C 38.042969 19.980469 38.019531 22.578125 37.5 25.257812 C 37.335938 25.425781 37.171875 25.589844 37 25.761719 C 36.882812 26.527344 36.792969 27.296875 36.71875 28.066406 C 36.675781 28.484375 36.636719 28.902344 36.59375 29.332031 C 36.546875 29.816406 36.546875 29.816406 36.5 30.308594 C 35.757812 30.558594 35.757812 30.558594 35 30.8125 C 35.25 27.648438 35.6875 24.558594 36.25 21.4375 C 37.449219 16.015625 37.449219 16.015625 37 10.609375 C 39 10.609375 41 10.609375 43 10.609375 C 42.054688 9.65625 40.542969 9.949219 39.28125 9.914062 C 34.34375 9.949219 31.058594 11.84375 27.5 15.15625 C 27.753906 14.058594 28 13.132812 28.5 12.125 C 28.828125 12.125 29.160156 12.125 29.5 12.125 C 29.664062 11.625 29.828125 11.125 30 10.609375 C 34.074219 8.246094 39.488281 8.957031 44 9.09375 C 43.96875 8.65625 43.9375 8.21875 43.90625 7.765625 C 44 6.0625 44 6.0625 45.5 3.03125 C 40.714844 3.03125 35.929688 3.03125 31 3.03125 C 35.957031 0.527344 41.757812 1.1875 47 2.527344 Z M 47 2.527344 "/>
<path style=" stroke:none;fill-rule:nonzero;fill:rgb(10.588235%,42.745098%,59.607846%);fill-opacity:1;" d="M 30.5 3.03125 C 30.5 3.363281 30.5 3.699219 30.5 4.042969 C 29 5.050781 29 5.050781 27.5 5.050781 C 27.5 5.550781 27.5 6.050781 27.5 6.566406 C 27.171875 6.566406 26.839844 6.566406 26.5 6.566406 C 26.5 6.902344 26.5 7.234375 26.5 7.578125 C 25.941406 7.75 25.941406 7.75 25.375 7.925781 C 23.136719 9.003906 22.238281 10.480469 21.375 12.785156 C 21.25 13.234375 21.128906 13.683594 21 14.144531 C 20.671875 14.144531 20.339844 14.144531 20 14.144531 C 19.96875 14.496094 19.9375 14.851562 19.90625 15.214844 C 19.84375 15.902344 19.84375 15.902344 19.78125 16.605469 C 19.742188 17.0625 19.699219 17.519531 19.65625 17.992188 C 19.5 19.195312 19.5 19.195312 19 20.207031 C 18.726562 26.453125 18.589844 32.425781 22 37.886719 C 22.648438 38.578125 23.308594 39.257812 24 39.90625 C 24 40.242188 24 40.574219 24 40.917969 C 24.988281 40.667969 24.988281 40.667969 26 40.414062 C 26.164062 41.414062 26.328125 42.414062 26.5 43.441406 C 26.789062 43.539062 27.078125 43.636719 27.378906 43.738281 C 31 44.957031 31 44.957031 32.421875 45.507812 C 36.519531 46.703125 41.320312 46.152344 45.5 45.464844 C 45.5 44.628906 45.5 43.796875 45.5 42.9375 C 45.996094 43.1875 45.996094 43.1875 46.5 43.441406 C 46.8125 44.738281 46.8125 44.738281 47 45.96875 C 40.554688 47.941406 34.738281 48.375 28.5 45.464844 C 23.214844 42.410156 19.804688 37.628906 18 31.824219 C 16.679688 25.691406 16.6875 17.824219 19.757812 12.273438 C 21.953125 8.945312 26.019531 3.03125 30.5 3.03125 Z M 30.5 3.03125 "/>
<path style=" stroke:none;fill-rule:nonzero;fill:rgb(2.745098%,12.54902%,21.568628%);fill-opacity:1;" d="M 17.5 18.1875 C 18.148438 20.15625 18.007812 22.007812 17.96875 24.058594 C 17.925781 30.730469 19.1875 36.5625 23.875 41.644531 C 25.996094 43.625 28.375 44.804688 31 45.96875 C 31.667969 46.300781 32.335938 46.636719 33 46.980469 C 29.496094 47.300781 27.351562 46.527344 24.5 44.453125 C 21.398438 41.726562 21.398438 41.726562 20.5 39.90625 C 17.199219 39.742188 13.898438 39.574219 10.5 39.402344 C 10.761719 35.613281 11.164062 31.988281 12 28.289062 C 12.164062 28.289062 12.328125 28.289062 12.5 28.289062 C 12.96875 31.773438 13.066406 34.523438 12 37.886719 C 14.308594 37.886719 16.621094 37.886719 19 37.886719 C 18.367188 36.636719 18.367188 36.636719 17.71875 35.359375 C 15.734375 30.273438 16.324219 24.542969 17 19.195312 C 17.164062 18.863281 17.328125 18.527344 17.5 18.1875 Z M 17.5 18.1875 "/>
<path style=" stroke:none;fill-rule:nonzero;fill:rgb(0%,0.784314%,2.745098%);fill-opacity:1;" d="M 43.5 36.875 C 44.441406 37.011719 44.441406 37.011719 45.5 37.382812 C 46.046875 38.210938 46.046875 38.210938 46.460938 39.273438 C 46.6875 39.84375 46.6875 39.84375 46.921875 40.429688 C 47.144531 41.03125 47.144531 41.03125 47.375 41.644531 C 47.53125 42.042969 47.691406 42.441406 47.851562 42.851562 C 49 45.792969 49 45.792969 49 46.980469 C 43.773438 48.734375 38.769531 48.691406 33.335938 48.644531 C 32.414062 48.640625 31.492188 48.636719 30.570312 48.636719 C 28.164062 48.628906 25.757812 48.617188 23.351562 48.597656 C 20.886719 48.582031 18.421875 48.578125 15.960938 48.570312 C 11.140625 48.550781 6.320312 48.527344 1.5 48.496094 C 1.5 48.328125 1.5 48.160156 1.5 47.988281 C 1.980469 47.984375 2.464844 47.980469 2.960938 47.976562 C 7.507812 47.9375 12.054688 47.894531 16.597656 47.84375 C 18.9375 47.820312 21.273438 47.796875 23.609375 47.777344 C 25.867188 47.757812 28.125 47.734375 30.378906 47.707031 C 31.238281 47.699219 32.101562 47.691406 32.960938 47.683594 C 34.167969 47.675781 35.371094 47.660156 36.578125 47.644531 C 36.933594 47.644531 37.289062 47.644531 37.652344 47.640625 C 39.789062 47.605469 41.5 47.222656 43.5 46.472656 C 44.664062 46.285156 45.828125 46.109375 47 45.96875 C 46.863281 45.632812 46.722656 45.296875 46.578125 44.953125 C 46.308594 44.285156 46.308594 44.285156 46.03125 43.601562 C 45.761719 42.941406 45.761719 42.941406 45.484375 42.269531 C 45.023438 40.976562 44.730469 39.746094 44.5 38.390625 C 44.003906 38.226562 43.511719 38.058594 43 37.886719 C 43.164062 37.554688 43.328125 37.21875 43.5 36.875 Z M 43.5 36.875 "/>
<path style=" stroke:none;fill-rule:nonzero;fill:rgb(12.941177%,41.176471%,56.470591%);fill-opacity:1;" d="M 47 2.527344 C 46.773438 3.316406 46.542969 4.105469 46.3125 4.894531 C 46.121094 5.554688 46.121094 5.554688 45.925781 6.226562 C 45.507812 7.546875 45.027344 8.820312 44.5 10.101562 C 43.613281 10.058594 43.613281 10.058594 42.707031 10.015625 C 36.339844 9.792969 32.289062 10.699219 27.5 15.15625 C 27.753906 14.058594 28 13.132812 28.5 12.125 C 28.828125 12.125 29.160156 12.125 29.5 12.125 C 29.664062 11.625 29.828125 11.125 30 10.609375 C 34.074219 8.246094 39.488281 8.957031 44 9.09375 C 43.96875 8.65625 43.9375 8.21875 43.90625 7.765625 C 44 6.0625 44 6.0625 45.5 3.03125 C 40.714844 3.03125 35.929688 3.03125 31 3.03125 C 35.957031 0.527344 41.757812 1.1875 47 2.527344 Z M 47 2.527344 "/>
<path style=" stroke:none;fill-rule:nonzero;fill:rgb(3.529412%,9.803922%,15.294118%);fill-opacity:1;" d="M 47.5 11.617188 C 47.242188 16.183594 46.5625 20.609375 45.734375 25.09375 C 45.53125 26.214844 45.328125 27.332031 45.128906 28.453125 C 45 29.175781 44.867188 29.898438 44.734375 30.621094 C 44.617188 31.265625 44.5 31.910156 44.382812 32.574219 C 44.027344 34.230469 43.566406 35.785156 43 37.382812 C 42.671875 37.382812 42.339844 37.382812 42 37.382812 C 41.832031 34.089844 42.460938 31.0625 43.125 27.847656 C 43.238281 27.292969 43.347656 26.738281 43.464844 26.164062 C 44.390625 21.632812 45.40625 17.121094 46.5 12.628906 C 46.003906 12.460938 45.511719 12.296875 45 12.125 C 46 11.617188 46 11.617188 47.5 11.617188 Z M 47.5 11.617188 "/>
<path style=" stroke:none;fill-rule:nonzero;fill:rgb(10.980392%,42.352942%,59.607846%);fill-opacity:1;" d="M 38 13.132812 C 40.308594 13.132812 42.621094 13.132812 45 13.132812 C 45 14.46875 45 15.800781 45 17.175781 C 44.835938 17.175781 44.671875 17.175781 44.5 17.175781 C 44.5 16.175781 44.5 15.175781 44.5 14.144531 C 42.851562 14.3125 41.199219 14.476562 39.5 14.648438 C 39.335938 15.148438 39.171875 15.648438 39 16.164062 C 38.671875 16.164062 38.339844 16.164062 38 16.164062 C 38.003906 16.523438 38.011719 16.886719 38.015625 17.257812 C 38.042969 19.980469 38.019531 22.578125 37.5 25.257812 C 37.335938 25.425781 37.171875 25.589844 37 25.761719 C 36.882812 26.527344 36.792969 27.296875 36.71875 28.066406 C 36.675781 28.484375 36.636719 28.902344 36.59375 29.332031 C 36.5625 29.65625 36.53125 29.976562 36.5 30.308594 C 35.757812 30.558594 35.757812 30.558594 35 30.8125 C 35.292969 26.851562 35.980469 23.019531 36.78125 19.132812 C 36.957031 18.261719 36.957031 18.261719 37.136719 17.375 C 37.421875 15.960938 37.710938 14.546875 38 13.132812 Z M 38 13.132812 "/>
<path style=" stroke:none;fill-rule:nonzero;fill:rgb(11.764706%,42.352942%,59.215689%);fill-opacity:1;" d="M 9.5 1.515625 C 11.976562 1.515625 14.449219 1.515625 17 1.515625 C 16.679688 5.484375 16.019531 9.300781 15.21875 13.195312 C 15.101562 13.777344 14.984375 14.355469 14.863281 14.953125 C 14.578125 16.367188 14.289062 17.78125 14 19.195312 C 13.835938 19.195312 13.671875 19.195312 13.5 19.195312 C 13.335938 15.035156 13.535156 11.410156 14.664062 7.398438 C 15.089844 5.699219 15.117188 4.261719 15 2.527344 C 13.679688 2.359375 12.359375 2.191406 11 2.019531 C 10.835938 2.6875 10.671875 3.355469 10.5 4.042969 C 10.171875 4.042969 9.839844 4.042969 9.5 4.042969 C 9.5 3.207031 9.5 2.375 9.5 1.515625 Z M 9.5 1.515625 "/>
<path style=" stroke:none;fill-rule:nonzero;fill:rgb(1.568628%,6.666667%,10.980392%);fill-opacity:1;" d="M 43.5 36.875 C 44.441406 37.011719 44.441406 37.011719 45.5 37.382812 C 46.046875 38.210938 46.046875 38.210938 46.460938 39.273438 C 46.613281 39.65625 46.765625 40.035156 46.921875 40.429688 C 47.070312 40.828125 47.21875 41.230469 47.375 41.644531 C 47.613281 42.242188 47.613281 42.242188 47.851562 42.851562 C 49 45.792969 49 45.792969 49 46.980469 C 47.289062 47.554688 45.957031 47.535156 44.15625 47.515625 C 43.273438 47.507812 43.273438 47.507812 42.367188 47.503906 C 41.917969 47.496094 41.464844 47.492188 41 47.484375 C 41 47.316406 41 47.152344 41 46.980469 C 42.980469 46.644531 44.960938 46.3125 47 45.96875 C 46.679688 45.1875 46.359375 44.40625 46.03125 43.601562 C 45.320312 41.867188 44.8125 40.242188 44.5 38.390625 C 44.003906 38.226562 43.511719 38.058594 43 37.886719 C 43.164062 37.554688 43.328125 37.21875 43.5 36.875 Z M 43.5 36.875 "/>
<path style=" stroke:none;fill-rule:nonzero;fill:rgb(10.980392%,42.352942%,60.392159%);fill-opacity:1;" d="M 12.5 19.195312 C 12.828125 19.195312 13.160156 19.195312 13.5 19.195312 C 13.550781 21.574219 13.390625 23.746094 12.953125 26.082031 C 12.839844 26.699219 12.726562 27.3125 12.609375 27.949219 C 12.492188 28.582031 12.371094 29.214844 12.25 29.867188 C 12.011719 31.132812 11.777344 32.394531 11.546875 33.660156 C 11.441406 34.214844 11.335938 34.773438 11.230469 35.347656 C 10.9375 37.035156 10.9375 37.035156 11 39.402344 C 12.648438 39.570312 14.300781 39.734375 16 39.90625 C 16 40.074219 16 40.242188 16 40.414062 C 14.019531 40.414062 12.039062 40.414062 10 40.414062 C 9.195312 38.789062 9.472656 37.160156 9.5 35.359375 C 9.828125 35.359375 10.160156 35.359375 10.5 35.359375 C 10.53125 34.824219 10.5625 34.289062 10.59375 33.738281 C 10.632812 33.039062 10.675781 32.335938 10.71875 31.636719 C 10.75 31.105469 10.75 31.105469 10.777344 30.566406 C 10.945312 27.898438 10.945312 27.898438 11.5 26.773438 C 11.695312 25.488281 11.871094 24.210938 12.03125 22.921875 C 12.097656 22.386719 12.097656 22.386719 12.167969 21.839844 C 12.28125 20.957031 12.390625 20.078125 12.5 19.195312 Z M 12.5 19.195312 "/>
<path style=" stroke:none;fill-rule:nonzero;fill:rgb(14.117648%,39.607844%,54.901963%);fill-opacity:1;" d="M 24.5 41.929688 C 25.578125 42.453125 26.570312 42.988281 27.5625 43.664062 C 33.121094 46.714844 39.394531 46.472656 45.5 45.464844 C 45.5 44.628906 45.5 43.796875 45.5 42.9375 C 45.828125 43.105469 46.160156 43.273438 46.5 43.441406 C 46.8125 44.738281 46.8125 44.738281 47 45.96875 C 40.578125 47.933594 34.710938 48.402344 28.5 45.464844 C 27.0625 44.5625 25.722656 43.617188 24.5 42.433594 C 24.5 42.265625 24.5 42.097656 24.5 41.929688 Z M 24.5 41.929688 "/>
<path style=" stroke:none;fill-rule:nonzero;fill:rgb(11.764706%,40.000001%,55.686277%);fill-opacity:1;" d="M 30.5 3.03125 C 30.5 3.363281 30.5 3.699219 30.5 4.042969 C 29 5.050781 29 5.050781 27.5 5.050781 C 27.5 5.550781 27.5 6.050781 27.5 6.566406 C 27.171875 6.566406 26.839844 6.566406 26.5 6.566406 C 26.5 6.902344 26.5 7.234375 26.5 7.578125 C 25.941406 7.75 25.941406 7.75 25.375 7.925781 C 23.136719 9.003906 22.238281 10.480469 21.375 12.785156 C 21.25 13.234375 21.128906 13.683594 21 14.144531 C 20.671875 14.144531 20.339844 14.144531 20 14.144531 C 19.554688 15.496094 19.261719 16.789062 19 18.1875 C 18.671875 18.019531 18.339844 17.851562 18 17.679688 C 18.851562 12.53125 22.070312 8.355469 26 5.050781 C 28.925781 3.03125 28.925781 3.03125 30.5 3.03125 Z M 30.5 3.03125 "/>
<path style=" stroke:none;fill-rule:nonzero;fill:rgb(5.490196%,18.039216%,27.450982%);fill-opacity:1;" d="M 31 35.359375 C 31.988281 35.695312 32.980469 36.027344 34 36.371094 C 34 36.703125 34 37.039062 34 37.382812 C 36.96875 37.382812 39.941406 37.382812 43 37.382812 C 43.164062 36.882812 43.328125 36.382812 43.5 35.867188 C 43.5 36.53125 43.5 37.199219 43.5 37.886719 C 43.828125 38.21875 44.160156 38.554688 44.5 38.898438 C 40.140625 40.070312 36.171875 39.394531 32 37.886719 C 32.164062 37.554688 32.328125 37.21875 32.5 36.875 C 32.003906 36.375 31.511719 35.875 31 35.359375 Z M 31 35.359375 "/>
<path style=" stroke:none;fill-rule:nonzero;fill:rgb(5.882353%,16.470589%,24.313726%);fill-opacity:1;" d="M 12 28.289062 C 12.164062 28.289062 12.328125 28.289062 12.5 28.289062 C 12.917969 31.773438 13.007812 34.914062 12.5 38.390625 C 15.140625 38.558594 17.78125 38.726562 20.5 38.898438 C 20.5 39.0625 20.5 39.230469 20.5 39.402344 C 17.199219 39.402344 13.898438 39.402344 10.5 39.402344 C 10.761719 35.613281 11.164062 31.988281 12 28.289062 Z M 12 28.289062 "/>
<path style=" stroke:none;fill-rule:nonzero;fill:rgb(1.176471%,6.27451%,13.725491%);fill-opacity:1;" d="M 25.5 24.246094 C 25.664062 24.246094 25.828125 24.246094 26 24.246094 C 26.078125 24.558594 26.160156 24.871094 26.242188 25.191406 C 27.445312 29.613281 29.058594 33.269531 32.5 36.371094 C 32.828125 36.703125 33.160156 37.039062 33.5 37.382812 C 31.988281 37.34375 30.882812 37.203125 29.703125 36.199219 C 26.699219 32.789062 25.238281 29.808594 25.429688 25.210938 C 25.453125 24.894531 25.476562 24.574219 25.5 24.246094 Z M 25.5 24.246094 "/>
<path style=" stroke:none;fill-rule:nonzero;fill:rgb(2.745098%,4.705882%,9.803922%);fill-opacity:1;" d="M 19.5 10.609375 C 20.019531 11.953125 20.046875 12.503906 19.519531 13.871094 C 19.285156 14.359375 19.054688 14.84375 18.8125 15.34375 C 16.851562 20.128906 17.035156 25.195312 17 30.308594 C 14.765625 26.171875 15.8125 20.355469 17.03125 16 C 17.695312 14.089844 18.523438 12.375 19.5 10.609375 Z M 19.5 10.609375 "/>
<path style=" stroke:none;fill-rule:nonzero;fill:rgb(7.843138%,18.431373%,25.098041%);fill-opacity:1;" d="M 43 10.101562 C 43.496094 10.101562 43.988281 10.101562 44.5 10.101562 C 45.625 11.238281 45.625 11.238281 46.5 12.628906 C 46.375 13.796875 46.375 13.796875 46 14.648438 C 46 14.148438 46 13.648438 46 13.132812 C 43.359375 13.132812 40.71875 13.132812 38 13.132812 C 37.835938 13.800781 37.671875 14.46875 37.5 15.15625 C 37.511719 14.78125 37.519531 14.40625 37.53125 14.019531 C 37.503906 12.769531 37.320312 11.800781 37 10.609375 C 39 10.609375 41 10.609375 43 10.609375 C 43 10.441406 43 10.273438 43 10.101562 Z M 43 10.101562 "/>
<path style=" stroke:none;fill-rule:nonzero;fill:rgb(5.882353%,8.235294%,12.941177%);fill-opacity:1;" d="M 34.5 26.269531 C 34.664062 26.269531 34.828125 26.269531 35 26.269531 C 35.117188 29.820312 34.894531 32.925781 34 36.371094 C 33.503906 36.203125 33.011719 36.039062 32.5 35.867188 C 32.738281 34.457031 32.976562 33.046875 33.21875 31.636719 C 33.285156 31.234375 33.351562 30.832031 33.421875 30.417969 C 33.945312 27.394531 33.945312 27.394531 34.5 26.269531 Z M 34.5 26.269531 "/>
<path style=" stroke:none;fill-rule:nonzero;fill:rgb(5.098039%,9.019608%,14.509805%);fill-opacity:1;" d="M 37 12.125 C 39.308594 12.125 41.621094 12.125 44 12.125 C 44 12.289062 44 12.457031 44 12.628906 C 41.855469 12.628906 39.710938 12.628906 37.5 12.628906 C 37.519531 13.328125 37.542969 14.023438 37.5625 14.746094 C 37.570312 16.621094 37.367188 18.003906 36.5 19.699219 C 36.335938 19.699219 36.171875 19.699219 36 19.699219 C 35.972656 19.007812 35.953125 18.3125 35.9375 17.617188 C 35.925781 17.230469 35.914062 16.84375 35.902344 16.445312 C 36 15.15625 36 15.15625 37 12.125 Z M 37 12.125 "/>
<path style=" stroke:none;fill-rule:nonzero;fill:rgb(3.137255%,8.235294%,12.941177%);fill-opacity:1;" d="M 47.5 11.617188 C 47.429688 12.578125 47.355469 13.535156 47.28125 14.492188 C 47.242188 15.023438 47.199219 15.558594 47.15625 16.109375 C 47.019531 17.503906 46.800781 18.835938 46.5 20.207031 C 46.171875 20.207031 45.839844 20.207031 45.5 20.207031 C 45.402344 17.414062 45.625 15.277344 46.5 12.628906 C 46.003906 12.460938 45.511719 12.296875 45 12.125 C 46 11.617188 46 11.617188 47.5 11.617188 Z M 47.5 11.617188 "/>
<path style=" stroke:none;fill-rule:nonzero;fill:rgb(2.352941%,9.803922%,18.039216%);fill-opacity:1;" d="M 23.5 5.558594 C 24.160156 5.722656 24.820312 5.890625 25.5 6.0625 C 25.265625 6.289062 25.03125 6.515625 24.789062 6.746094 C 23.0625 8.4375 21.660156 9.976562 20.5 12.125 C 20.335938 12.125 20.171875 12.125 20 12.125 C 19.847656 10.539062 19.859375 9.804688 20.765625 8.46875 C 21.089844 8.121094 21.414062 7.777344 21.75 7.417969 C 22.074219 7.066406 22.398438 6.714844 22.734375 6.351562 C 22.988281 6.089844 23.238281 5.828125 23.5 5.558594 Z M 23.5 5.558594 "/>
<path style=" stroke:none;fill-rule:nonzero;fill:rgb(14.117648%,39.607844%,54.901963%);fill-opacity:1;" d="M 45 13.132812 C 45.328125 13.132812 45.660156 13.132812 46 13.132812 C 45.742188 16.738281 45.28125 20.214844 44.5 23.742188 C 44.335938 23.742188 44.171875 23.742188 44 23.742188 C 44 21.574219 44 19.40625 44 17.175781 C 44.328125 17.175781 44.660156 17.175781 45 17.175781 C 45 15.839844 45 14.507812 45 13.132812 Z M 45 13.132812 "/>
<path style=" stroke:none;fill-rule:nonzero;fill:rgb(3.529412%,7.843138%,13.333334%);fill-opacity:1;" d="M 13 24.246094 C 13.328125 24.246094 13.660156 24.246094 14 24.246094 C 13.941406 25.320312 13.878906 26.394531 13.8125 27.46875 C 13.761719 28.363281 13.761719 28.363281 13.707031 29.277344 C 13.5 30.8125 13.5 30.8125 12.5 31.824219 C 12.488281 30.65625 12.476562 29.488281 12.46875 28.320312 C 12.464844 27.667969 12.457031 27.019531 12.453125 26.347656 C 12.5 24.753906 12.5 24.753906 13 24.246094 Z M 13 24.246094 "/>
<path style=" stroke:none;fill-rule:nonzero;fill:rgb(8.627451%,42.745098%,61.960787%);fill-opacity:1;" d="M 43.5 19.195312 C 43.828125 19.195312 44.160156 19.195312 44.5 19.195312 C 44.441406 20.34375 44.378906 21.492188 44.3125 22.636719 C 44.277344 23.277344 44.242188 23.914062 44.207031 24.574219 C 44 26.269531 44 26.269531 43 27.785156 C 42.804688 28.957031 42.632812 30.136719 42.5 31.320312 C 42.335938 31.320312 42.171875 31.320312 42 31.320312 C 41.929688 26.988281 41.929688 26.988281 42.5 25.257812 C 42.828125 25.257812 43.160156 25.257812 43.5 25.257812 C 43.5 23.257812 43.5 21.257812 43.5 19.195312 Z M 43.5 19.195312 "/>
<path style=" stroke:none;fill-rule:nonzero;fill:rgb(5.882353%,13.725491%,23.137255%);fill-opacity:1;" d="M 14 16.164062 C 14.164062 16.164062 14.328125 16.164062 14.5 16.164062 C 14.597656 17.121094 14.691406 18.078125 14.78125 19.039062 C 14.832031 19.570312 14.886719 20.105469 14.9375 20.652344 C 14.996094 22.132812 14.855469 23.324219 14.5 24.753906 C 14.003906 24.585938 13.511719 24.417969 13 24.246094 C 13.328125 21.582031 13.660156 18.914062 14 16.164062 Z M 14 16.164062 "/>
<path style=" stroke:none;fill-rule:nonzero;fill:rgb(3.529412%,4.705882%,9.803922%);fill-opacity:1;" d="M 1 40.917969 C 1.328125 40.917969 1.660156 40.917969 2 40.917969 C 2.046875 44.027344 2.046875 44.027344 2 44.957031 C 1.835938 45.125 1.671875 45.292969 1.5 45.464844 C 1.480469 46.472656 1.480469 47.484375 1.5 48.496094 C 1.003906 48.496094 0.511719 48.496094 0 48.496094 C 0.480469 43.160156 0.480469 43.160156 1 40.917969 Z M 1 40.917969 "/>
<path style=" stroke:none;fill-rule:nonzero;fill:rgb(5.098039%,43.921569%,62.352943%);fill-opacity:1;" d="M 36.5 28.792969 C 36.664062 28.792969 36.828125 28.792969 37 28.792969 C 37.019531 29.804688 37.019531 30.816406 37 31.824219 C 36.835938 31.992188 36.671875 32.15625 36.5 32.328125 C 36.304688 33.09375 36.128906 33.863281 35.96875 34.632812 C 35.878906 35.050781 35.792969 35.46875 35.703125 35.898438 C 35.636719 36.222656 35.570312 36.542969 35.5 36.875 C 35.335938 36.875 35.171875 36.875 35 36.875 C 35 34.875 35 32.875 35 30.8125 C 35.328125 30.648438 35.660156 30.480469 36 30.308594 C 36.164062 29.808594 36.328125 29.308594 36.5 28.792969 Z M 36.5 28.792969 "/>
<path style=" stroke:none;fill-rule:nonzero;fill:rgb(41.568628%,40.784314%,42.352942%);fill-opacity:1;" d="M 37 10.609375 C 37.707031 10.59375 38.417969 10.585938 39.125 10.578125 C 39.714844 10.566406 39.714844 10.566406 40.320312 10.558594 C 41.46875 10.605469 42.414062 10.726562 43.5 11.113281 C 43.664062 11.445312 43.828125 11.78125 44 12.125 C 41.691406 12.125 39.378906 12.125 37 12.125 C 37 11.625 37 11.125 37 10.609375 Z M 37 10.609375 "/>
<path style=" stroke:none;fill-rule:nonzero;fill:rgb(2.352941%,5.098039%,9.411765%);fill-opacity:1;" d="M 8.5 0.503906 C 8.828125 0.671875 9.160156 0.839844 9.5 1.011719 C 9.359375 1.917969 9.210938 2.820312 9.0625 3.726562 C 8.980469 4.230469 8.898438 4.734375 8.816406 5.253906 C 8.5 6.566406 8.5 6.566406 7.5 7.578125 C 6.800781 6.164062 7.148438 5.292969 7.4375 3.757812 C 7.527344 3.257812 7.621094 2.753906 7.714844 2.238281 C 8 1.011719 8 1.011719 8.5 0.503906 Z M 8.5 0.503906 "/>
<path style=" stroke:none;fill-rule:nonzero;fill:rgb(11.372549%,41.960785%,60.392159%);fill-opacity:1;" d="M 43 2.527344 C 44.320312 2.527344 45.640625 2.527344 47 2.527344 C 46.699219 3.714844 46.367188 4.894531 46 6.0625 C 45.503906 6.3125 45.503906 6.3125 45 6.566406 C 44.503906 7.316406 44.503906 7.316406 44 8.082031 C 44.304688 6.285156 44.789062 4.707031 45.5 3.03125 C 44.675781 3.03125 43.851562 3.03125 43 3.03125 C 43 2.863281 43 2.699219 43 2.527344 Z M 43 2.527344 "/>
<path style=" stroke:none;fill-rule:nonzero;fill:rgb(13.333334%,40.784314%,55.686277%);fill-opacity:1;" d="M 45.5 42.9375 C 45.828125 43.105469 46.160156 43.273438 46.5 43.441406 C 46.664062 44.277344 46.828125 45.109375 47 45.96875 C 45.351562 46.300781 43.699219 46.636719 42 46.980469 C 41.835938 46.644531 41.671875 46.3125 41.5 45.96875 C 42.820312 45.800781 44.140625 45.636719 45.5 45.464844 C 45.5 44.628906 45.5 43.796875 45.5 42.9375 Z M 45.5 42.9375 "/>
<path style=" stroke:none;fill-rule:nonzero;fill:rgb(5.098039%,43.137255%,61.56863%);fill-opacity:1;" d="M 37.5 2.527344 C 37.5 2.691406 37.5 2.859375 37.5 3.03125 C 35.472656 3.527344 33.582031 3.578125 31.5 3.535156 C 31.335938 4.035156 31.171875 4.535156 31 5.050781 C 30.339844 4.886719 29.679688 4.71875 29 4.546875 C 29.496094 4.378906 29.988281 4.214844 30.5 4.042969 C 30.5 3.707031 30.5 3.375 30.5 3.03125 C 32.863281 2.640625 35.109375 2.476562 37.5 2.527344 Z M 37.5 2.527344 "/>
<path style=" stroke:none;fill-rule:nonzero;fill:rgb(1.568628%,11.764706%,19.607843%);fill-opacity:1;" d="M 28 33.84375 C 29.902344 34.402344 31.21875 34.816406 32.5 36.371094 C 32.828125 36.703125 33.160156 37.039062 33.5 37.382812 C 31.992188 37.3125 30.878906 37.234375 29.742188 36.167969 C 29.132812 35.417969 28.5625 34.632812 28 33.84375 Z M 28 33.84375 "/>
<path style=" stroke:none;fill-rule:nonzero;fill:rgb(4.313726%,5.490196%,9.411765%);fill-opacity:1;" d="M 18 0 C 18.164062 0 18.328125 0 18.5 0 C 18.441406 0.90625 18.378906 1.808594 18.3125 2.714844 C 18.261719 3.472656 18.261719 3.472656 18.207031 4.242188 C 18 5.558594 18 5.558594 17 6.566406 C 16.917969 4.082031 16.875 2.269531 18 0 Z M 18 0 "/>
<path style=" stroke:none;fill-rule:nonzero;fill:rgb(2.352941%,5.098039%,14.901961%);fill-opacity:1;" d="M 33.5 31.824219 C 33.828125 31.824219 34.160156 31.824219 34.5 31.824219 C 34.335938 33.324219 34.171875 34.824219 34 36.371094 C 33.503906 36.203125 33.011719 36.039062 32.5 35.867188 C 32.828125 34.53125 33.160156 33.199219 33.5 31.824219 Z M 33.5 31.824219 "/>
<path style=" stroke:none;fill-rule:nonzero;fill:rgb(9.803922%,38.431373%,54.509807%);fill-opacity:1;" d="M 35.5 25.761719 C 36.644531 27.5 36.589844 28.28125 36.5 30.308594 C 36.003906 30.476562 35.511719 30.644531 35 30.8125 C 35.164062 29.148438 35.328125 27.480469 35.5 25.761719 Z M 35.5 25.761719 "/>
<path style=" stroke:none;fill-rule:nonzero;fill:rgb(1.960784%,3.529412%,5.098039%);fill-opacity:1;" d="M 47.5 11.617188 C 47.335938 13.117188 47.171875 14.621094 47 16.164062 C 46.835938 16.164062 46.671875 16.164062 46.5 16.164062 C 46.5 14.996094 46.5 13.832031 46.5 12.628906 C 46.003906 12.460938 45.511719 12.296875 45 12.125 C 46 11.617188 46 11.617188 47.5 11.617188 Z M 47.5 11.617188 "/>
<path style=" stroke:none;fill-rule:nonzero;fill:rgb(8.627451%,12.156863%,16.470589%);fill-opacity:1;" d="M 12 0 C 13.980469 0 15.960938 0 18 0 C 17.835938 0.832031 17.671875 1.667969 17.5 2.527344 C 17.171875 2.027344 16.839844 1.527344 16.5 1.011719 C 15.402344 0.71875 15.402344 0.71875 14.1875 0.664062 C 13.777344 0.628906 13.371094 0.597656 12.949219 0.5625 C 12.636719 0.542969 12.324219 0.523438 12 0.503906 C 12 0.339844 12 0.171875 12 0 Z M 12 0 "/>
<path style=" stroke:none;fill-rule:nonzero;fill:rgb(1.960784%,8.627451%,15.686275%);fill-opacity:1;" d="M 18.5 33.339844 C 19.882812 34.734375 19.789062 35.96875 20 37.886719 C 19.503906 37.554688 19.011719 37.21875 18.5 36.875 C 18.40625 35.046875 18.40625 35.046875 18.5 33.339844 Z M 18.5 33.339844 "/>
<path style=" stroke:none;fill-rule:nonzero;fill:rgb(1.568628%,3.529412%,9.019608%);fill-opacity:1;" d="M 25.5 24.246094 C 25.664062 24.246094 25.828125 24.246094 26 24.246094 C 26.496094 26.082031 26.988281 27.914062 27.5 29.804688 C 27.171875 29.804688 26.839844 29.804688 26.5 29.804688 C 25.160156 27.773438 25.421875 26.652344 25.5 24.246094 Z M 25.5 24.246094 "/>
</g>
</svg>
